<svg width="32" height="32" viewBox="0 0 32 32" fill="none" xmlns="http://www.w3.org/2000/svg">
<rect x="0.5" y="0.5" width="31" height="31" rx="15.5" stroke="white"/>
<path d="M13.1999 9.3335H18.7999C20.9333 9.3335 22.6666 11.0668 22.6666 13.2002V18.8002C22.6666 19.8257 22.2592 20.8092 21.5341 21.5343C20.8089 22.2594 19.8254 22.6668 18.7999 22.6668H13.1999C11.0666 22.6668 9.33325 20.9335 9.33325 18.8002V13.2002C9.33325 12.1747 9.74063 11.1912 10.4658 10.466C11.1909 9.74088 12.1744 9.3335 13.1999 9.3335ZM13.0666 10.6668C12.4301 10.6668 11.8196 10.9197 11.3695 11.3698C10.9194 11.8199 10.6666 12.4303 10.6666 13.0668V18.9335C10.6666 20.2602 11.7399 21.3335 13.0666 21.3335H18.9333C19.5698 21.3335 20.1802 21.0806 20.6303 20.6306C21.0804 20.1805 21.3333 19.57 21.3333 18.9335V13.0668C21.3333 11.7402 20.2599 10.6668 18.9333 10.6668H13.0666ZM19.4999 11.6668C19.7209 11.6668 19.9329 11.7546 20.0892 11.9109C20.2455 12.0672 20.3333 12.2791 20.3333 12.5002C20.3333 12.7212 20.2455 12.9331 20.0892 13.0894C19.9329 13.2457 19.7209 13.3335 19.4999 13.3335C19.2789 13.3335 19.0669 13.2457 18.9107 13.0894C18.7544 12.9331 18.6666 12.7212 18.6666 12.5002C18.6666 12.2791 18.7544 12.0672 18.9107 11.9109C19.0669 11.7546 19.2789 11.6668 19.4999 11.6668ZM15.9999 12.6668C16.884 12.6668 17.7318 13.018 18.3569 13.6431C18.9821 14.2683 19.3333 15.1161 19.3333 16.0002C19.3333 16.8842 18.9821 17.7321 18.3569 18.3572C17.7318 18.9823 16.884 19.3335 15.9999 19.3335C15.1159 19.3335 14.268 18.9823 13.6429 18.3572C13.0178 17.7321 12.6666 16.8842 12.6666 16.0002C12.6666 15.1161 13.0178 14.2683 13.6429 13.6431C14.268 13.018 15.1159 12.6668 15.9999 12.6668ZM15.9999 14.0002C15.4695 14.0002 14.9608 14.2109 14.5857 14.5859C14.2106 14.961 13.9999 15.4697 13.9999 16.0002C13.9999 16.5306 14.2106 17.0393 14.5857 17.4144C14.9608 17.7894 15.4695 18.0002 15.9999 18.0002C16.5304 18.0002 17.0391 17.7894 17.4141 17.4144C17.7892 17.0393 17.9999 16.5306 17.9999 16.0002C17.9999 15.4697 17.7892 14.961 17.4141 14.5859C17.0391 14.2109 16.5304 14.0002 15.9999 14.0002Z" fill="white"/>
</svg>
