<svg width="32" height="32" viewBox="0 0 32 32" fill="none" xmlns="http://www.w3.org/2000/svg">
<rect x="0.5" y="0.5" width="31" height="31" rx="15.5" stroke="white"/>
<path d="M22.9733 11.9998C22.4599 12.2332 21.9066 12.3865 21.3333 12.4598C21.9199 12.1065 22.3733 11.5465 22.5866 10.8732C22.0333 11.2065 21.4199 11.4398 20.7733 11.5732C20.2466 10.9998 19.5066 10.6665 18.6666 10.6665C17.0999 10.6665 15.8199 11.9465 15.8199 13.5265C15.8199 13.7532 15.8466 13.9732 15.8933 14.1798C13.5199 14.0598 11.4066 12.9198 9.99994 11.1932C9.75328 11.6132 9.61328 12.1065 9.61328 12.6265C9.61328 13.6198 10.1133 14.4998 10.8866 14.9998C10.4133 14.9998 9.97328 14.8665 9.58661 14.6665V14.6865C9.58661 16.0732 10.5733 17.2332 11.8799 17.4932C11.4604 17.608 11.02 17.6239 10.5933 17.5398C10.7743 18.1082 11.129 18.6054 11.6073 18.9618C12.0856 19.3181 12.6636 19.5156 13.2599 19.5265C12.249 20.3268 10.9959 20.7594 9.70661 20.7532C9.47994 20.7532 9.25328 20.7398 9.02661 20.7132C10.2933 21.5265 11.7999 21.9998 13.4133 21.9998C18.6666 21.9998 21.5533 17.6398 21.5533 13.8598C21.5533 13.7332 21.5533 13.6132 21.5466 13.4865C22.1066 13.0865 22.5866 12.5798 22.9733 11.9998Z" fill="white"/>
</svg>
