<svg width="43" height="40" viewBox="0 0 43 40" fill="none" xmlns="http://www.w3.org/2000/svg">
<rect x="0.4" y="0.4" width="42.2" height="39.2" rx="9.6" fill="url(#paint0_linear_284_141)"/>
<rect x="0.4" y="0.4" width="42.2" height="39.2" rx="9.6" stroke="url(#paint1_linear_284_141)" stroke-width="0.8"/>
<path d="M26.712 10.2371C26.7719 10.0492 26.7553 9.8453 26.6659 9.66953C26.5765 9.49377 26.4215 9.36028 26.2344 9.29796C26.0473 9.23564 25.8432 9.24951 25.6663 9.33656C25.4893 9.42362 25.3538 9.57685 25.289 9.76309L24.539 12.0121C24.4792 12.2 24.4958 12.4039 24.5851 12.5797C24.6745 12.7554 24.8296 12.8889 25.0166 12.9512C25.2037 13.0135 25.4078 12.9997 25.5848 12.9126C25.7617 12.8256 25.8972 12.6723 25.962 12.4861L26.712 10.2371ZM31.28 10.2201C31.4205 10.3607 31.4994 10.5513 31.4994 10.7501C31.4994 10.9488 31.4205 11.1395 31.28 11.2801L28.78 13.7801C28.7114 13.8538 28.6286 13.9129 28.5366 13.9539C28.4446 13.9949 28.3452 14.0169 28.2445 14.0187C28.1438 14.0205 28.0438 14.0019 27.9504 13.9642C27.857 13.9265 27.7722 13.8704 27.701 13.7991C27.6298 13.7279 27.5736 13.6431 27.5359 13.5497C27.4982 13.4563 27.4796 13.3563 27.4814 13.2556C27.4832 13.1549 27.5052 13.0556 27.5462 12.9636C27.5872 12.8716 27.6463 12.7888 27.72 12.7201L30.22 10.2201C30.3606 10.0796 30.5513 10.0008 30.75 10.0008C30.9488 10.0008 31.1394 10.0796 31.28 10.2201ZM22.37 11.7401C22.1121 11.4638 21.7906 11.2545 21.4336 11.1304C21.0765 11.0063 20.6946 10.9712 20.3208 11.028C19.9471 11.0849 19.5929 11.232 19.2889 11.4566C18.9848 11.6812 18.7401 11.9766 18.576 12.3171L12.678 24.5601C12.5123 24.9044 12.4605 25.2926 12.5301 25.6683C12.5997 26.0441 12.787 26.3879 13.065 26.6501L14.504 28.0081C14.7619 28.2513 15.0859 28.4129 15.4353 28.4726C15.7847 28.5324 16.1439 28.4877 16.468 28.3441L17.885 27.7161C18.3222 28.6743 19.1197 29.4214 20.1043 29.7952C21.0889 30.1691 22.1813 30.1395 23.1442 29.7129C24.1072 29.2864 24.863 28.4972 25.2477 27.5168C25.6324 26.5363 25.6149 25.4437 25.199 24.4761L28.619 22.9601C28.958 22.8099 29.2562 22.5808 29.4886 22.292C29.721 22.0031 29.881 21.6628 29.9552 21.2996C30.0294 20.9363 30.0156 20.5605 29.915 20.2037C29.8145 19.8468 29.63 19.5192 29.377 19.2481L22.37 11.7401ZM23.827 25.0821C24.0699 25.6836 24.0694 26.3559 23.8258 26.957C23.5822 27.5582 23.1145 28.0411 22.5214 28.3038C21.9283 28.5665 21.2564 28.5885 20.6475 28.365C20.0385 28.1415 19.5403 27.6901 19.258 27.1061L23.827 25.0821ZM28.5 16.2491C28.5 16.0502 28.579 15.8594 28.7197 15.7188C28.8603 15.5781 29.0511 15.4991 29.25 15.4991H31.25C31.4489 15.4991 31.6397 15.5781 31.7803 15.7188C31.921 15.8594 32 16.0502 32 16.2491C32 16.448 31.921 16.6388 31.7803 16.7794C31.6397 16.9201 31.4489 16.9991 31.25 16.9991H29.25C29.0511 16.9991 28.8603 16.9201 28.7197 16.7794C28.579 16.6388 28.5 16.448 28.5 16.2491Z" fill="#00B1D5"/>
<defs>
<linearGradient id="paint0_linear_284_141" x1="22" y1="47" x2="1.61302" y2="2.29772" gradientUnits="userSpaceOnUse">
<stop stop-color="#03047B"/>
<stop offset="1"/>
</linearGradient>
<linearGradient id="paint1_linear_284_141" x1="21.5" y1="0" x2="21.5" y2="40" gradientUnits="userSpaceOnUse">
<stop stop-color="#3A3A3A"/>
<stop offset="1"/>
</linearGradient>
</defs>
</svg>
