<svg width="43" height="40" viewBox="0 0 43 40" fill="none" xmlns="http://www.w3.org/2000/svg">
<rect x="0.4" y="0.4" width="42.2" height="39.2" rx="9.6" fill="url(#paint0_linear_283_107)"/>
<rect x="0.4" y="0.4" width="42.2" height="39.2" rx="9.6" stroke="url(#paint1_linear_283_107)" stroke-width="0.8"/>
<path d="M30.9199 14.62C30.8185 14.3757 30.6243 14.1815 30.3799 14.08C30.2597 14.0288 30.1306 14.0016 29.9999 14H24.9999C24.7347 14 24.4804 14.1054 24.2928 14.2929C24.1053 14.4804 23.9999 14.7348 23.9999 15C23.9999 15.2652 24.1053 15.5196 24.2928 15.7071C24.4804 15.8946 24.7347 16 24.9999 16H27.5899L21.9999 21.59L18.7099 18.29C18.617 18.1963 18.5064 18.1219 18.3845 18.0711C18.2627 18.0203 18.132 17.9942 17.9999 17.9942C17.8679 17.9942 17.7372 18.0203 17.6154 18.0711C17.4935 18.1219 17.3829 18.1963 17.2899 18.29L11.2899 24.29C11.1962 24.383 11.1218 24.4936 11.071 24.6154C11.0203 24.7373 10.9941 24.868 10.9941 25C10.9941 25.132 11.0203 25.2627 11.071 25.3846C11.1218 25.5064 11.1962 25.617 11.2899 25.71C11.3829 25.8037 11.4935 25.8781 11.6154 25.9289C11.7372 25.9797 11.8679 26.0058 11.9999 26.0058C12.132 26.0058 12.2627 25.9797 12.3845 25.9289C12.5064 25.8781 12.617 25.8037 12.7099 25.71L17.9999 20.41L21.2899 23.71C21.3829 23.8037 21.4935 23.8781 21.6154 23.9289C21.7372 23.9797 21.8679 24.0058 21.9999 24.0058C22.132 24.0058 22.2627 23.9797 22.3845 23.9289C22.5064 23.8781 22.617 23.8037 22.7099 23.71L28.9999 17.41V20C28.9999 20.2652 29.1053 20.5196 29.2928 20.7071C29.4804 20.8946 29.7347 21 29.9999 21C30.2652 21 30.5195 20.8946 30.707 20.7071C30.8946 20.5196 30.9999 20.2652 30.9999 20V15C30.9984 14.8693 30.9712 14.7402 30.9199 14.62Z" fill="#00B1D5"/>
<defs>
<linearGradient id="paint0_linear_283_107" x1="22" y1="47" x2="1.61302" y2="2.29772" gradientUnits="userSpaceOnUse">
<stop stop-color="#03047B"/>
<stop offset="1"/>
</linearGradient>
<linearGradient id="paint1_linear_283_107" x1="21.5" y1="0" x2="21.5" y2="40" gradientUnits="userSpaceOnUse">
<stop stop-color="#3A3A3A"/>
<stop offset="1"/>
</linearGradient>
</defs>
</svg>
