<svg width="32" height="32" viewBox="0 0 32 32" fill="none" xmlns="http://www.w3.org/2000/svg">
<rect x="0.5" y="0.5" width="31" height="31" rx="15.5" stroke="white"/>
<path d="M12.6266 11.3335C12.6265 11.6871 12.4858 12.0262 12.2356 12.2761C11.9855 12.526 11.6462 12.6664 11.2926 12.6662C10.939 12.666 10.5999 12.5254 10.35 12.2752C10.1001 12.025 9.95978 11.6858 9.95996 11.3322C9.96014 10.9786 10.1008 10.6395 10.351 10.3896C10.6011 10.1396 10.9403 9.99934 11.294 9.99951C11.6476 9.99969 11.9867 10.1403 12.2366 10.3905C12.4865 10.6407 12.6268 10.9799 12.6266 11.3335ZM12.6666 13.6535H9.99996V22.0002H12.6666V13.6535ZM16.88 13.6535H14.2266V22.0002H16.8533V17.6202C16.8533 15.1802 20.0333 14.9535 20.0333 17.6202V22.0002H22.6666V16.7135C22.6666 12.6002 17.96 12.7535 16.8533 14.7735L16.88 13.6535Z" fill="white"/>
</svg>
