<?xml version="1.0" encoding="utf-8"?>
<!-- Generator: Adobe Illustrator 27.3.1, SVG Export Plug-In . SVG Version: 6.00 Build 0)  -->
<svg version="1.1" id="Layer_1" xmlns="http://www.w3.org/2000/svg" xmlns:xlink="http://www.w3.org/1999/xlink" x="0px" y="0px"
	 viewBox="0 0 1296 382" style="enable-background:new 0 0 1296 382;" xml:space="preserve">
<style type="text/css">
	.st0{fill:#03045E;}
	.st1{fill:#0077B6;}
	.st2{fill:#90E0EF;}
	.st3{fill:#00B4D8;}
</style>
<g>
	<path class="st0" d="M91.73,94.62L143.05,179c30.07,20.54,68.21,8.18,79.34-16.06c10.16-22.14-1.66-55.37-31.8-68.32H91.73z"/>
	<path class="st1" d="M213.58,308.09L337.63,94.62H271.2c-2.22,0.44-6.32,1.56-10.39,4.72c-3.29,2.55-5.24,5.4-6.3,7.24
		l-71.47,123.74c-0.97,2.39-2.27,6.47-2.2,11.65c0.06,4.34,1.05,7.83,1.89,10.08"/>
	<path class="st2" d="M328.82,310.61L452.87,97.14h-66.43c-2.22,0.44-6.32,1.56-10.39,4.72c-3.29,2.55-5.24,5.4-6.3,7.24
		l-71.47,123.74c-0.97,2.39-2.27,6.47-2.2,11.65c0.06,4.34,1.05,7.83,1.89,10.08"/>
</g>
<g>
	<path class="st3" d="M604.4,90.15l-22.31,69.38H570l-15.98-47.07l-16.12,47.07h-11.95l-22.46-69.38h14.4l14.68,45.2l15.4-45.2
		h11.95l15.55,45.2L590,90.15H604.4z"/>
	<path class="st3" d="M623.4,131.75c2.02,8.64,8.35,15.12,18.43,15.12c7.34,0,12.67-3.46,15.84-8.64l12.52,6.05
		c-5.61,9.79-15.55,16.27-28.36,16.27c-20.15,0-33.83-16.12-33.83-35.7c0-19.58,13.24-35.7,33.4-35.7
		c20.15,0,30.95,16.12,30.95,35.7c0,2.3-0.14,4.61-0.58,6.91H623.4z M623.11,118.8h35.12c-1.44-9.07-6.48-15.98-16.84-15.98
		S624.98,109.73,623.11,118.8z"/>
	<path class="st3" d="M750.22,124.84c0,19.58-12.09,35.7-32.25,35.7c-8.93,0-15.98-3.17-21.16-8.49v7.49h-13.68V58.77h13.68v38.87
		c5.18-5.33,12.24-8.49,21.16-8.49C738.27,89.14,750.22,105.27,750.22,124.84z M735.25,124.84c0-11.95-6.33-22.02-18.86-22.02
		c-12.67,0-18.86,10.08-18.86,22.02c0,11.95,6.33,22.02,18.86,22.02S735.25,136.79,735.25,124.84z"/>
	<path class="st3" d="M800.03,64.24l-7.77,10.08c-2.73-2.45-7.63-3.46-10.22-2.45c-3.02,1.3-4.17,4.32-4.17,9.5v8.78h12.52v12.52
		h-12.52v56.86h-13.82v-56.86h-8.06V90.15h8.06v-8.92c0-12.67,4.32-19.72,12.96-22.46C784.19,56.61,794.7,59.06,800.03,64.24z"/>
	<path class="st3" d="M839.61,154.78c-5.33,5.18-13.53,7.05-20.73,5.04c-8.78-2.45-12.38-9.93-12.38-22.6V51.57h13.82v85.51
		c0,5.18,1.15,8.21,4.17,9.5c2.45,1.01,5.61,0.72,8.06-1.44L839.61,154.78z"/>
	<path class="st3" d="M900.36,90.15v39.15c0,20.01-11.8,31.24-28.21,31.24s-28.21-11.23-28.21-31.24V90.15h13.68v37.86
		c0,13.53,6.48,18.86,14.54,18.86c7.92,0,14.4-5.33,14.4-18.86V90.15H900.36z"/>
	<path class="st3" d="M926.56,131.75c2.01,8.64,8.35,15.12,18.43,15.12c7.34,0,12.67-3.46,15.83-8.64l12.52,6.05
		c-5.61,9.79-15.55,16.27-28.36,16.27c-20.15,0-33.83-16.12-33.83-35.7c0-19.58,13.24-35.7,33.4-35.7
		c20.15,0,30.95,16.12,30.95,35.7c0,2.3-0.14,4.61-0.58,6.91H926.56z M926.28,118.8h35.12c-1.44-9.07-6.48-15.98-16.84-15.98
		C934.19,102.82,928.15,109.73,926.28,118.8z"/>
	<path class="st3" d="M1044.17,120.38v39.15h-13.68v-37.86c0-13.53-6.48-18.86-14.54-18.86c-8.49,0-15.26,5.04-15.26,17.99v38.72
		h-13.68V90.15h13.68v6.62c4.61-4.75,10.65-7.63,17.85-7.63C1034.81,89.14,1044.17,100.37,1044.17,120.38z"/>
	<path class="st3" d="M1104.63,138.23l12.67,6.05c-5.61,9.79-15.69,16.27-28.5,16.27c-20.15,0-33.83-16.12-33.83-35.7
		c0-19.58,13.68-35.7,33.83-35.7c12.81,0,22.89,6.48,28.5,16.27l-12.67,6.05c-3.17-5.18-8.49-8.64-15.83-8.64
		c-12.52,0-19.29,10.08-19.29,22.02c0,11.95,6.77,22.02,19.29,22.02C1096.14,146.87,1101.46,143.41,1104.63,138.23z"/>
	<path class="st3" d="M1139.18,131.75c2.01,8.64,8.35,15.12,18.43,15.12c7.34,0,12.67-3.46,15.83-8.64l12.52,6.05
		c-5.61,9.79-15.55,16.27-28.36,16.27c-20.15,0-33.83-16.12-33.83-35.7c0-19.58,13.24-35.7,33.4-35.7
		c20.15,0,30.95,16.12,30.95,35.7c0,2.3-0.14,4.61-0.58,6.91H1139.18z M1138.89,118.8h35.12c-1.44-9.07-6.48-15.98-16.84-15.98
		C1146.81,102.82,1140.76,109.73,1138.89,118.8z"/>
	<path class="st3" d="M541.64,309.72c-5.33,5.18-13.53,7.05-20.73,5.04c-8.78-2.45-12.38-9.93-12.38-22.6V206.5h13.82v85.51
		c0,5.18,1.15,8.21,4.17,9.5c2.45,1.01,5.61,0.72,8.06-1.44L541.64,309.72z"/>
	<path class="st3" d="M602.67,269.41v45.06h-13.53v-8.21c-2.59,3.02-8.49,8.21-19.29,9.21c-16.27,1.44-25.05-9.36-23.75-20.73
		c1.58-13.67,11.08-17.71,25.34-21.45c8.92-2.3,16.55-2.88,17.27-7.77c1.01-6.77-6.77-9.79-12.67-9.36
		c-6.91,0.29-12.67,3.6-14.68,10.94l-12.38-2.59c1.73-8.78,10.08-20.58,28.07-20.58C591.59,243.93,602.67,250.98,602.67,269.41z
		 M589.14,281.79c0,0-6.19,1.73-15.4,4.03c-12.38,3.17-13.1,9.07-12.67,11.8c0.43,3.17,3.02,6.05,10.65,5.47
		c7.05-0.58,17.42-7.34,17.42-18.28V281.79z"/>
	<path class="st3" d="M682.71,279.77c0,19.58-12.09,35.7-32.25,35.7c-8.92,0-15.98-3.17-21.16-8.49v7.49h-13.68V213.7h13.68v38.87
		c5.18-5.33,12.24-8.49,21.16-8.49C670.76,244.07,682.71,260.2,682.71,279.77z M667.74,279.77c0-11.95-6.33-22.02-18.86-22.02
		c-12.67,0-18.86,10.08-18.86,22.02s6.33,22.02,18.86,22.02C661.4,301.8,667.74,291.72,667.74,279.77z"/>
	<path class="st3" d="M718.26,315.76c-15.83,0-25.77-8.21-29.08-17.71l12.96-4.61c1.58,4.32,6.19,8.64,15.55,8.64
		c9.21,0,12.81-4.46,12.24-8.35c-0.43-3.31-4.61-5.33-15.4-7.49c-13.39-2.73-21.59-6.91-23.32-17.42
		c-1.87-10.94,5.47-24.76,24.62-24.76c17.85,0,24.47,12.38,25.62,16.7l-12.96,4.46c-1.58-4.75-7.2-7.77-12.67-7.77
		c-9.21,0-10.94,4.75-10.94,7.34c0,3.74,2.88,6.91,14.11,8.92c15.83,2.88,23.9,7.63,24.76,18.57
		C744.89,305.83,734.1,315.76,718.26,315.76z"/>
</g>
</svg>
