<svg width="43" height="40" viewBox="0 0 43 40" fill="none" xmlns="http://www.w3.org/2000/svg">
<rect x="0.4" y="0.4" width="42.2" height="39.2" rx="9.6" fill="url(#paint0_linear_284_177)"/>
<rect x="0.4" y="0.4" width="42.2" height="39.2" rx="9.6" stroke="url(#paint1_linear_284_177)" stroke-width="0.8"/>
<path d="M14.1098 9.80444L13.0538 10.8589L14.625 12.4294L15.6795 11.3749L14.1098 9.80444ZM27.891 9.80444L26.3198 11.3749L27.375 12.4294L28.9455 10.8597L27.891 9.80444ZM21 10.2724C20.7525 10.2744 20.5025 10.2904 20.25 10.3204H20.2275C17.1855 10.6692 14.7645 13.1269 14.3438 16.1554C14.0077 18.5929 15.0127 20.8032 16.6875 22.2267C17.3725 22.8114 17.8358 23.6137 18 24.4992V28.9992H19.71C19.971 29.4469 20.4473 29.7492 21 29.7492C21.5527 29.7492 22.029 29.4469 22.29 28.9992H24V25.9992H24.0705V25.1082C24.0705 24.0087 24.642 22.9002 25.5705 22.0384C26.8125 20.7949 27.75 19.0287 27.75 16.9999C27.75 13.2949 24.7005 10.2379 21 10.2724ZM21 11.7724C23.8988 11.7319 26.25 14.1049 26.25 16.9999C26.25 18.5704 25.5225 19.9534 24.5153 20.9599L24.5392 20.9839C23.5387 21.9073 22.8915 23.1507 22.7092 24.4999H19.4287C19.2637 23.2144 18.7125 21.9702 17.6707 21.0777C16.3455 19.9527 15.5558 18.2577 15.8198 16.3437C16.1475 13.9812 18.0645 12.0814 20.4135 11.8212C20.6075 11.7943 20.8028 11.7783 20.9985 11.7732L21 11.7724ZM10.5 16.9999V18.4999H12.75V16.9999H10.5ZM29.25 16.9999V18.4999H31.5V16.9999H29.25ZM14.625 23.0704L13.0545 24.6402L14.1098 25.6954L15.6787 24.1249L14.625 23.0704ZM27.375 23.0704L26.3205 24.1249L27.8903 25.6954L28.9455 24.6402L27.375 23.0704ZM19.5 25.9999H22.5V27.4999H19.5V25.9999Z" fill="#00B1D5"/>
<defs>
<linearGradient id="paint0_linear_284_177" x1="22" y1="47" x2="1.61302" y2="2.29772" gradientUnits="userSpaceOnUse">
<stop stop-color="#03047B"/>
<stop offset="1"/>
</linearGradient>
<linearGradient id="paint1_linear_284_177" x1="21.5" y1="0" x2="21.5" y2="40" gradientUnits="userSpaceOnUse">
<stop stop-color="#3A3A3A"/>
<stop offset="1"/>
</linearGradient>
</defs>
</svg>
