<svg width="43" height="40" viewBox="0 0 43 40" fill="none" xmlns="http://www.w3.org/2000/svg">
<rect x="0.4" y="0.4" width="42.2" height="39.2" rx="9.6" fill="url(#paint0_linear_284_195)"/>
<rect x="0.4" y="0.4" width="42.2" height="39.2" rx="9.6" stroke="url(#paint1_linear_284_195)" stroke-width="0.8"/>
<path d="M21.5 10C15.986 10 11.5 14.486 11.5 20V24.143C11.5 25.167 12.397 26 13.5 26H14.5C14.7652 26 15.0196 25.8946 15.2071 25.7071C15.3946 25.5196 15.5 25.2652 15.5 25V19.857C15.5 19.5918 15.3946 19.3374 15.2071 19.1499C15.0196 18.9624 14.7652 18.857 14.5 18.857H13.592C14.148 14.987 17.478 12 21.5 12C25.522 12 28.852 14.987 29.408 18.857H28.5C28.2348 18.857 27.9804 18.9624 27.7929 19.1499C27.6054 19.3374 27.5 19.5918 27.5 19.857V26C27.5 27.103 26.603 28 25.5 28H23.5V27H19.5V30H25.5C27.706 30 29.5 28.206 29.5 26C30.603 26 31.5 25.167 31.5 24.143V20C31.5 14.486 27.014 10 21.5 10Z" fill="#00B1D5"/>
<defs>
<linearGradient id="paint0_linear_284_195" x1="22" y1="47" x2="1.61302" y2="2.29772" gradientUnits="userSpaceOnUse">
<stop stop-color="#03047B"/>
<stop offset="1"/>
</linearGradient>
<linearGradient id="paint1_linear_284_195" x1="21.5" y1="0" x2="21.5" y2="40" gradientUnits="userSpaceOnUse">
<stop stop-color="#3A3A3A"/>
<stop offset="1"/>
</linearGradient>
</defs>
</svg>
